# xmcd CD database file
#
# Track frame offsets:
#	150
#	20525
#	41437
#
# Disc length: 822 seconds
#
# Revision: 0
# Processed by: cddbd v1.5.1PL0 Copyright (c) Steve Scherf et al.
# Submitted via: CDex 1.51
#
DISCID=1a033403
DTITLE=嘉門　達夫 - 替え唄メドレードラゴン
DYEAR=2000
DGENRE=JPop
TTITLE0=替え唄メドレードラゴン
TTITLE1=俺だけかぁー
TTITLE2=替え唄メドレードラゴン(カラオケVer.)
EXTD=YEAR: 2000
EXTT0=
EXTT1=
EXTT2=
PLAYORDER=
